<svg width="64" height="64" viewBox="0 0 64 64" fill="none" xmlns="http://www.w3.org/2000/svg">
<path d="M28.1091 42.0897C32.24 42.0897 35.5887 38.5987 35.5887 34.2924C35.5887 29.9861 32.24 26.4951 28.1091 26.4951C23.9783 26.4951 20.6296 29.9861 20.6296 34.2924C20.6296 38.5987 23.9783 42.0897 28.1091 42.0897Z" fill="#333333"/>
<path d="M28.1089 43.5872C26.3456 43.5871 24.622 43.0419 23.1559 42.0205C21.6898 40.9992 20.5472 39.5476 19.8725 37.8493C19.1978 36.151 19.0213 34.2823 19.3654 32.4795C19.7095 30.6766 20.5586 29.0206 21.8055 27.7209C23.0524 26.4211 24.641 25.536 26.3704 25.1774C28.0998 24.8188 29.8923 25.0029 31.5214 25.7064C33.1504 26.4099 34.5428 27.6011 35.5224 29.1295C36.502 30.6579 37.0249 32.4548 37.0249 34.293C37.0222 36.7572 36.0819 39.1197 34.4104 40.8621C32.7389 42.6045 30.4727 43.5845 28.1089 43.5872ZM28.1089 27.9926C26.9136 27.9926 25.7451 28.3621 24.7512 29.0544C23.7573 29.7467 22.9827 30.7307 22.5253 31.882C22.0678 33.0332 21.9481 34.3 22.1813 35.5222C22.4145 36.7443 22.9901 37.867 23.8354 38.7481C24.6806 39.6292 25.7575 40.2293 26.9298 40.4724C28.1022 40.7155 29.3174 40.5907 30.4217 40.1139C31.5261 39.637 32.47 38.8294 33.134 37.7933C33.7981 36.7572 34.1526 35.5391 34.1526 34.293C34.1508 32.6226 33.5135 31.0212 32.3805 29.84C31.2474 28.6589 29.7112 27.9945 28.1089 27.9926Z" fill="#333333"/>
<path d="M9.42056 62.5032C6.28719 62.5032 3.73895 61.5731 2.0528 59.6154C-3.8388 52.776 3.35813 36.3638 18.4336 22.2453C33.5091 8.12691 49.9381 2.42878 55.8297 9.26819C58.8042 12.721 58.5931 18.6162 55.2344 25.8709C52.0778 32.6879 46.4711 40.0627 39.4478 46.6377C28.6862 56.7146 17.235 62.5032 9.42056 62.5032ZM48.3899 9.50781C41.92 9.50781 31.319 14.4498 20.4671 24.6084C5.73952 38.3966 0.226463 52.7446 4.31784 57.4938C8.40921 62.2429 22.6816 58.0659 37.4109 44.2752C44.1459 37.9695 49.4994 30.9431 52.4892 24.49C55.2344 18.5606 55.6254 13.786 53.5613 11.3898C52.4858 10.1397 50.7015 9.50781 48.3899 9.50781Z" fill="#333333"/>
<path d="M43.867 19.4365L33.0261 28.1819L34.7842 30.5504L45.6251 21.805L43.867 19.4365Z" fill="#333333"/>
<path d="M15.6478 19.3445L13.444 21.265L20.973 30.6541L23.1767 28.7336L15.6478 19.3445Z" fill="#333333"/>
<path d="M23.5376 40.8486L20.7168 49.4054L23.4332 50.3786L26.254 41.8218L23.5376 40.8486Z" fill="#333333"/>
<path d="M51.9684 23.5889C57.82 23.5889 62.5637 18.6437 62.5637 12.5435C62.5637 6.44331 57.82 1.49811 51.9684 1.49811C46.1167 1.49811 41.373 6.44331 41.373 12.5435C41.373 18.6437 46.1167 23.5889 51.9684 23.5889Z" fill="#333333"/>
<path d="M51.968 25.0859C49.5884 25.0859 47.2621 24.3503 45.2835 22.972C43.3049 21.5938 41.7627 19.6349 40.8521 17.343C39.9414 15.0511 39.7032 12.5291 40.1674 10.096C40.6317 7.66295 41.7776 5.42803 43.4603 3.67388C45.1429 1.91973 47.2868 0.725135 49.6207 0.241165C51.9547 -0.242804 54.3739 0.00558886 56.5724 0.954929C58.7709 1.90427 60.65 3.51192 61.9721 5.57458C63.2941 7.63725 63.9998 10.0623 63.9998 12.543C63.9963 15.8685 62.7276 19.0567 60.4719 21.4082C58.2163 23.7597 55.158 25.0823 51.968 25.0859ZM51.968 2.99565C50.1566 2.99577 48.3859 3.55584 46.8798 4.60502C45.3737 5.65421 44.1999 7.14541 43.5067 8.89004C42.8136 10.6347 42.6323 12.5544 42.9857 14.4065C43.3391 16.2585 44.2114 17.9598 45.4922 19.295C46.7731 20.6303 48.405 21.5397 50.1816 21.9081C51.9582 22.2765 53.7997 22.0875 55.4733 21.3649C57.1468 20.6423 58.5772 19.4186 59.5837 17.8486C60.5901 16.2785 61.1274 14.4326 61.1275 12.5442C61.1248 10.0126 60.1589 7.58557 58.4418 5.79548C56.7246 4.00539 54.3964 2.99847 51.968 2.99565Z" fill="#333333"/>
<path d="M11.1104 21.1064C13.7506 21.1064 15.8908 18.8752 15.8908 16.123C15.8908 13.3707 13.7506 11.1396 11.1104 11.1396C8.47032 11.1396 6.33008 13.3707 6.33008 16.123C6.33008 18.8752 8.47032 21.1064 11.1104 21.1064Z" fill="#333333"/>
<path d="M11.1115 22.6033C9.88202 22.6032 8.68021 22.223 7.65802 21.5108C6.63583 20.7987 5.83917 19.7865 5.36878 18.6024C4.89839 17.4182 4.7754 16.1152 5.01537 14.8582C5.25533 13.6012 5.84747 12.4466 6.71691 11.5403C7.58634 10.6341 8.69402 10.0171 9.89987 9.76713C11.1057 9.51721 12.3556 9.64566 13.4914 10.1362C14.6272 10.6268 15.598 11.4575 16.281 12.5233C16.9639 13.589 17.3284 14.8419 17.3283 16.1236C17.3263 17.8417 16.6707 19.4888 15.5052 20.7036C14.3397 21.9184 12.7596 22.6016 11.1115 22.6033ZM11.1115 12.637C10.4502 12.6372 9.80372 12.8417 9.2539 13.2248C8.70409 13.6079 8.27557 14.1523 8.02255 14.7893C7.76953 15.4262 7.70336 16.1271 7.8324 16.8032C7.96144 17.4794 8.27991 18.1005 8.74753 18.588C9.21516 19.0755 9.81093 19.4075 10.4595 19.542C11.1081 19.6765 11.7804 19.6075 12.3914 19.3437C13.0024 19.08 13.5247 18.6333 13.8922 18.0601C14.2597 17.4869 14.4559 16.813 14.456 16.1236C14.4549 15.1993 14.1022 14.3131 13.4752 13.6594C12.8482 13.0058 11.9982 12.6381 11.1115 12.637Z" fill="#333333"/>
<path d="M20.9077 62.5038C24.2794 62.5038 27.0127 59.6544 27.0127 56.1395C27.0127 52.6246 24.2794 49.7751 20.9077 49.7751C17.536 49.7751 14.8027 52.6246 14.8027 56.1395C14.8027 59.6544 17.536 62.5038 20.9077 62.5038Z" fill="#333333"/>
<path d="M20.9068 64C19.4153 64 17.9573 63.539 16.7172 62.6752C15.4771 61.8113 14.5106 60.5836 13.9399 59.1471C13.3691 57.7106 13.2198 56.13 13.5108 54.605C13.8019 53.0801 14.5201 51.6793 15.5748 50.58C16.6294 49.4806 17.9731 48.7319 19.436 48.4287C20.8988 48.1254 22.415 48.2812 23.7929 48.8763C25.1708 49.4713 26.3485 50.479 27.177 51.7719C28.0056 53.0647 28.4477 54.5846 28.4476 56.1395C28.4455 58.2237 27.6504 60.2218 26.2366 61.6955C24.8229 63.1692 22.906 63.998 20.9068 64ZM20.9068 51.2726C19.9834 51.2726 19.0808 51.558 18.3131 52.0928C17.5453 52.6276 16.9469 53.3877 16.5936 54.277C16.2402 55.1663 16.1478 56.1449 16.3279 57.0889C16.5081 58.033 16.9527 58.9002 17.6056 59.5809C18.2585 60.2615 19.0904 60.725 19.996 60.9128C20.9016 61.1006 21.8403 61.0042 22.6933 60.6359C23.5464 60.2675 24.2755 59.6437 24.7885 58.8433C25.3015 58.043 25.5753 57.102 25.5753 56.1395C25.5738 54.8492 25.0815 53.6122 24.2063 52.6998C23.3311 51.7874 22.1445 51.2742 20.9068 51.2726Z" fill="#333333"/>
</svg>
